<mxfile host="app.diagrams.net" modified="2021-07-04T16:22:46.788Z" agent="5.0 (Windows)" etag="8OtlFpfwlAxn_kFcxRBg" version="14.8.4" type="github">
  <diagram id="FgxprVoga50uPgCRiva-" name="Page-1">
    <mxGraphModel dx="1422" dy="791" grid="1" gridSize="10" guides="1" tooltips="1" connect="1" arrows="1" fold="1" page="1" pageScale="1" pageWidth="827" pageHeight="1169" math="0" shadow="0">
      <root>
        <mxCell id="0" />
        <mxCell id="1" parent="0" />
        <mxCell id="Z-zd4Z4Abuf2PiybZv9X-8" style="edgeStyle=orthogonalEdgeStyle;rounded=0;orthogonalLoop=1;jettySize=auto;html=1;exitX=1;exitY=0.5;exitDx=0;exitDy=0;entryX=0;entryY=0.5;entryDx=0;entryDy=0;strokeWidth=3;" parent="1" source="Z-zd4Z4Abuf2PiybZv9X-1" target="Z-zd4Z4Abuf2PiybZv9X-2" edge="1">
          <mxGeometry relative="1" as="geometry" />
        </mxCell>
        <mxCell id="Z-zd4Z4Abuf2PiybZv9X-1" value="&lt;font style=&quot;font-size: 15px&quot;&gt;Annotated Corpus&lt;/font&gt;" style="ellipse;whiteSpace=wrap;html=1;aspect=fixed;strokeWidth=2;fillColor=#fff2cc;strokeColor=#d6b656;" parent="1" vertex="1">
          <mxGeometry x="40" y="400" width="80" height="80" as="geometry" />
        </mxCell>
        <mxCell id="Z-zd4Z4Abuf2PiybZv9X-9" style="edgeStyle=orthogonalEdgeStyle;rounded=0;orthogonalLoop=1;jettySize=auto;html=1;exitX=1;exitY=0.5;exitDx=0;exitDy=0;entryX=0;entryY=0.5;entryDx=0;entryDy=0;strokeWidth=3;" parent="1" source="Z-zd4Z4Abuf2PiybZv9X-2" target="Z-zd4Z4Abuf2PiybZv9X-3" edge="1">
          <mxGeometry relative="1" as="geometry" />
        </mxCell>
        <mxCell id="Z-zd4Z4Abuf2PiybZv9X-2" value="&lt;font style=&quot;font-size: 15px&quot;&gt;Embedding Layer&lt;/font&gt;" style="rounded=1;whiteSpace=wrap;html=1;strokeWidth=2;fillColor=#f5f5f5;strokeColor=#666666;fontColor=#333333;" parent="1" vertex="1">
          <mxGeometry x="200" y="280" width="80" height="320" as="geometry" />
        </mxCell>
        <mxCell id="Z-zd4Z4Abuf2PiybZv9X-10" style="edgeStyle=orthogonalEdgeStyle;rounded=0;orthogonalLoop=1;jettySize=auto;html=1;exitX=1;exitY=0.5;exitDx=0;exitDy=0;strokeWidth=3;" parent="1" source="Z-zd4Z4Abuf2PiybZv9X-3" target="Z-zd4Z4Abuf2PiybZv9X-4" edge="1">
          <mxGeometry relative="1" as="geometry" />
        </mxCell>
        <mxCell id="Z-zd4Z4Abuf2PiybZv9X-3" value="&lt;font style=&quot;font-size: 15px&quot;&gt;Spacial-Dropout1D Layer&lt;/font&gt;" style="rounded=0;whiteSpace=wrap;html=1;strokeWidth=2;dashed=1;" parent="1" vertex="1">
          <mxGeometry x="320" y="280" width="80" height="320" as="geometry" />
        </mxCell>
        <mxCell id="Z-zd4Z4Abuf2PiybZv9X-13" style="edgeStyle=orthogonalEdgeStyle;rounded=0;orthogonalLoop=1;jettySize=auto;html=1;exitX=1.017;exitY=0.525;exitDx=0;exitDy=0;exitPerimeter=0;strokeWidth=3;" parent="1" source="Z-zd4Z4Abuf2PiybZv9X-4" target="Z-zd4Z4Abuf2PiybZv9X-5" edge="1">
          <mxGeometry relative="1" as="geometry">
            <Array as="points">
              <mxPoint x="562" y="440" />
            </Array>
          </mxGeometry>
        </mxCell>
        <mxCell id="Z-zd4Z4Abuf2PiybZv9X-4" value="&lt;font style=&quot;font-size: 15px&quot;&gt;LSTM Layer&lt;/font&gt;" style="shape=cube;whiteSpace=wrap;html=1;boundedLbl=1;backgroundOutline=1;darkOpacity=0.05;darkOpacity2=0.1;strokeWidth=2;" parent="1" vertex="1">
          <mxGeometry x="440" y="400" width="120" height="80" as="geometry" />
        </mxCell>
        <mxCell id="Z-zd4Z4Abuf2PiybZv9X-14" style="edgeStyle=orthogonalEdgeStyle;rounded=0;orthogonalLoop=1;jettySize=auto;html=1;exitX=1;exitY=0.5;exitDx=0;exitDy=0;entryX=0;entryY=0.5;entryDx=0;entryDy=0;strokeWidth=3;" parent="1" source="Z-zd4Z4Abuf2PiybZv9X-5" target="Z-zd4Z4Abuf2PiybZv9X-7" edge="1">
          <mxGeometry relative="1" as="geometry" />
        </mxCell>
        <mxCell id="Z-zd4Z4Abuf2PiybZv9X-5" value="&lt;font style=&quot;font-size: 15px&quot;&gt;Dense Layer&lt;/font&gt;" style="rounded=0;whiteSpace=wrap;html=1;strokeWidth=2;fillColor=#f5f5f5;strokeColor=#666666;fontColor=#333333;" parent="1" vertex="1">
          <mxGeometry x="600" y="280" width="80" height="320" as="geometry" />
        </mxCell>
        <mxCell id="Z-zd4Z4Abuf2PiybZv9X-7" value="&lt;font style=&quot;font-size: 15px&quot;&gt;Sentiment prediction&lt;/font&gt;" style="rhombus;whiteSpace=wrap;html=1;strokeWidth=2;fillColor=#d5e8d4;strokeColor=#82b366;" parent="1" vertex="1">
          <mxGeometry x="720" y="385" width="110" height="110" as="geometry" />
        </mxCell>
        <mxCell id="Z-zd4Z4Abuf2PiybZv9X-11" value="" style="curved=1;endArrow=classic;html=1;strokeWidth=3;entryX=-0.017;entryY=0.475;entryDx=0;entryDy=0;entryPerimeter=0;fillColor=#f5f5f5;strokeColor=#666666;" parent="1" target="Z-zd4Z4Abuf2PiybZv9X-4" edge="1">
          <mxGeometry width="50" height="50" relative="1" as="geometry">
            <mxPoint x="560" y="420" as="sourcePoint" />
            <mxPoint x="420" y="410" as="targetPoint" />
            <Array as="points">
              <mxPoint x="580" y="400" />
              <mxPoint x="550" y="350" />
              <mxPoint x="438" y="350" />
              <mxPoint x="410" y="410" />
            </Array>
          </mxGeometry>
        </mxCell>
        <mxCell id="Z-zd4Z4Abuf2PiybZv9X-15" value="&lt;font color=&quot;#595959&quot;&gt;Recurrent connection&lt;/font&gt;" style="text;html=1;strokeColor=none;fillColor=none;align=center;verticalAlign=middle;whiteSpace=wrap;rounded=0;dashed=1;" parent="1" vertex="1">
          <mxGeometry x="470" y="320" width="40" height="20" as="geometry" />
        </mxCell>
        <mxCell id="Z-zd4Z4Abuf2PiybZv9X-16" value="" style="rounded=0;whiteSpace=wrap;html=1;dashed=1;strokeWidth=2;fillColor=none;" parent="1" vertex="1">
          <mxGeometry x="20" y="270" width="830" height="410" as="geometry" />
        </mxCell>
        <mxCell id="bD0CdZfB6KnG4RW5OPmj-1" value="" style="endArrow=classic;html=1;strokeWidth=2;" edge="1" parent="1">
          <mxGeometry width="50" height="50" relative="1" as="geometry">
            <mxPoint x="440" y="640" as="sourcePoint" />
            <mxPoint x="560" y="640" as="targetPoint" />
          </mxGeometry>
        </mxCell>
        <mxCell id="bD0CdZfB6KnG4RW5OPmj-2" value="linear forward passing through time" style="text;html=1;align=center;verticalAlign=middle;resizable=0;points=[];autosize=1;strokeColor=none;" vertex="1" parent="1">
          <mxGeometry x="395" y="650" width="210" height="20" as="geometry" />
        </mxCell>
        <mxCell id="bD0CdZfB6KnG4RW5OPmj-3" value="LSTM" style="text;html=1;align=center;verticalAlign=middle;resizable=0;points=[];autosize=1;strokeColor=none;" vertex="1" parent="1">
          <mxGeometry x="475" y="610" width="50" height="20" as="geometry" />
        </mxCell>
      </root>
    </mxGraphModel>
  </diagram>
</mxfile>
